<svg xmlns="http://www.w3.org/2000/svg" viewBox="0 -28 512.001 512"><path d="M256 455.516c-7.29 0-14.316-2.64-19.793-7.437l-58.31-50.152C126.316 353.97 81.773 316.008 50.78 278.613 16.137 236.81 0 197.172 0 153.87 0 111.8 14.426 72.988 40.617 44.578 67.12 15.832 103.488 0 143.03 0c29.555 0 56.62 9.344 80.445 27.77C235.5 37.07 246.398 48.453 256 61.73c9.605-13.277 20.5-24.66 32.527-33.96C312.352 9.344 339.418 0 368.973 0c39.54 0 75.9 15.832 102.414 44.578C497.578 72.988 512 111.8 512 153.87c0 43.3-16.133 82.938-50.777 124.738-30.992 37.398-75.53 75.355-127.105 119.31l-58.328 50.168c-5.473 4.79-12.504 7.43-19.79 7.43zM143.03 29.992c-31.066 0-59.605 12.398-80.367 34.914-21.07 22.855-32.676 54.45-32.676 88.965 0 36.418 13.535 68.988 43.883 105.605 29.332 35.395 72.96 72.574 123.477 115.625l.094.078 58.516 50.332 58.707-50.418c50.512-43.05 94.137-80.223 123.47-115.617 30.344-36.617 43.88-69.187 43.88-105.605 0-34.516-11.605-66.11-32.676-88.965-20.758-22.516-49.3-34.914-80.363-34.914-22.758 0-43.652 7.234-62.102 21.5-16.44 12.72-27.895 28.797-34.61 40.047A18.78 18.78 0 0 1 256 100.777a18.78 18.78 0 0 1-16.262-9.238c-6.71-11.25-18.164-27.328-34.61-40.047-18.45-14.266-39.344-21.5-62.098-21.5zm0 0"/></svg>